<svg xmlns="http://www.w3.org/2000/svg" width="114" height="45" viewBox="0 0 114 45"><g><g><path fill="#c80000" d="M26.937 14.5l.244.034c.832.127 3.682.64 6.778 2.078 5.163 2.395 5.352 5.233 5.295 6.701-.1 2.669-2.848 4.613-5.343 5.525l-.087.032c-2.516.9-6.456 1.494-6.456 1.494 1.917-1.981 3.154-4.743 3.154-7.725 0-3.225-1.412-6.126-3.585-8.14zM16.847.026l6.562 12.31a10.853 10.853 0 0 0-3.865-.706c-6.066 0-10.98 4.928-10.98 11.008 0 3.08 1.26 5.86 3.29 7.86l-.19-.004a14.65 14.65 0 0 1-2.135-.22l-.154-.03c-1.284-.255-3.73-.973-5.61-2.105C1.811 26.96-.159 25.054.01 22.92l.046-.564c.168-1.872.568-3.583 4.49-9.203 3.8-5.435 10.437-11.47 11.975-12.84zm2.697 14.531c4.45 0 8.057 3.616 8.057 8.076 0 4.462-3.607 8.078-8.057 8.078-4.452 0-8.06-3.616-8.06-8.078 0-4.46 3.608-8.076 8.06-8.076z"/></g><g><path fill="#fff" d="M78.715 11.797c-3.873-.003-7.08 3.203-7.294 7.24l-.006.123v.634c.154 4.061 3.386 7.294 7.3 7.293 3.992-.008 7.305-3.386 7.305-7.606-.002-4.26-3.315-7.676-7.305-7.684zm-24.09 0c-3.872-.003-7.081 3.203-7.296 7.24l-.006.123-.002.634c.158 4.061 3.392 7.294 7.304 7.293 3.994-.008 7.304-3.386 7.304-7.606 0-4.26-3.316-7.676-7.304-7.684zm48.138 0c-3.99.008-7.305 3.424-7.305 7.684 0 4.22 3.313 7.598 7.305 7.606 3.88 0 7.09-3.168 7.305-7.161l.006-.122v-.635c-.156-4.104-3.394-7.375-7.31-7.372zM71.293 0l.032 11.209c2.127-2.117 4.513-3.025 7.389-3.02 6.06 0 10.855 5.061 10.867 11.296-.012 6.15-4.81 11.209-10.867 11.21-3.515.002-6.511-1.485-8.369-4.024l-.213-.292c-.487-.667-.895-1.248-1.204-1.962-.89-2.06-1.065-3.822-1.078-4.5V.071zM47.207 0l.029 11.209c2.128-2.117 4.512-3.025 7.39-3.02 6.058 0 10.853 5.061 10.866 11.296-.013 6.15-4.808 11.209-10.866 11.21-3.47.002-6.436-1.447-8.296-3.925l-.288-.391c-.488-.667-.895-1.248-1.203-1.962-.905-2.098-1.072-3.885-1.077-4.537V.072zm62.97.001l3.442.07v19.782c-.002.62-.158 2.436-1.079 4.571-.348.817-.83 1.458-1.414 2.255-1.83 2.504-4.769 3.985-8.221 4.024h-.146c-6.056 0-10.849-5.061-10.86-11.212.011-6.237 4.803-11.3 10.86-11.3 2.83-.005 5.177.874 7.28 2.918l.105.103zm-9.625 37.754c-.264 0-.52.046-.76.134-.239.09-.459.214-.653.372a2.107 2.107 0 0 0-.494.567c-.132.22-.226.46-.271.722h4.329a2.163 2.163 0 0 0-.27-.702c-.136-.22-.299-.411-.49-.573a2.309 2.309 0 0 0-.644-.38 2.02 2.02 0 0 0-.747-.14zm-44.528 0a2.18 2.18 0 0 0-.76.134c-.242.09-.458.214-.655.372a2.177 2.177 0 0 0-.767 1.289h4.332a2.151 2.151 0 0 0-.272-.702 2.307 2.307 0 0 0-1.132-.953 2.035 2.035 0 0 0-.746-.14zm-16.58 0c-.27 0-.524.046-.762.134-.24.09-.459.214-.654.372-.198.157-.36.347-.493.567-.136.22-.226.46-.274.722h4.332a2.151 2.151 0 0 0-.272-.702 2.41 2.41 0 0 0-.488-.573 2.392 2.392 0 0 0-.643-.38 2.04 2.04 0 0 0-.747-.14zm28.966 0c-.27 0-.523.046-.763.134-.24.09-.457.214-.654.372a2.161 2.161 0 0 0-.765 1.289h4.331a2.205 2.205 0 0 0-.273-.702 2.292 2.292 0 0 0-1.13-.953 2.02 2.02 0 0 0-.746-.14zm-19.323-.02c-.315 0-.608.055-.883.164-.273.11-.513.263-.72.46a2.088 2.088 0 0 0-.482.698 2.225 2.225 0 0 0-.174.88c0 .308.059.596.174.865.116.267.275.502.473.704.198.203.43.363.7.479.267.117.553.175.86.175.308 0 .6-.056.874-.165.273-.11.511-.26.713-.453.201-.191.362-.42.483-.683a2.08 2.08 0 0 0 .182-.861c0-.309-.048-.593-.134-.853a1.746 1.746 0 0 0-.398-.66l-.058-.06a2.191 2.191 0 0 0-.735-.51 2.18 2.18 0 0 0-.875-.18zm-19.726.01a2.185 2.185 0 0 0-1.563.655 2.362 2.362 0 0 0-.472.707 2.154 2.154 0 0 0-.175.865c0 .318.059.61.175.882a2.1 2.1 0 0 0 .484.702 2.325 2.325 0 0 0 1.602.623 2.248 2.248 0 0 0 1.617-.692c.219-.219.371-.459.457-.722.086-.26.129-.545.129-.854a2.14 2.14 0 0 0-.662-1.547 2.217 2.217 0 0 0-.717-.454 2.353 2.353 0 0 0-.875-.165zm47.801.01c-.308 0-.596.06-.864.18s-.5.282-.694.486a2.275 2.275 0 0 0-.633 1.581c0 .304.059.588.174.853.118.263.275.496.474.695a2.182 2.182 0 0 0 1.543.64 2.102 2.102 0 0 0 1.552-.67c.193-.207.344-.445.449-.717.104-.272.161-.563.161-.873 0-.308-.057-.59-.161-.844a2.123 2.123 0 0 0-.5-.713 2.238 2.238 0 0 0-.686-.453 2.08 2.08 0 0 0-.815-.165zm-69.833 0c-.308 0-.598.06-.866.18-.264.12-.499.282-.692.486-.196.203-.35.44-.464.71a2.27 2.27 0 0 0-.169.871 2.204 2.204 0 0 0 1.341 2.017c.265.113.55.171.85.171.316 0 .606-.06.868-.181.265-.12.492-.283.687-.49.19-.206.34-.444.444-.716.107-.272.161-.563.161-.873 0-.308-.054-.59-.161-.844A2.25 2.25 0 0 0 8.14 37.92a2.053 2.053 0 0 0-.812-.165zm76.8 0c-.312 0-.6.055-.878.165a2.199 2.199 0 0 0-1.198 1.14 2.08 2.08 0 0 0-.18.862c0 .308.04.593.13.854.085.262.237.503.455.723.213.22.46.39.735.51.28.12.572.182.883.182a2.315 2.315 0 0 0 1.603-.624c.206-.197.37-.43.485-.702.116-.273.174-.566.174-.882 0-.309-.058-.599-.174-.865a2.255 2.255 0 0 0-.475-.707 2.165 2.165 0 0 0-1.56-.656zm-23.886-.609l1.947 4.672 1.948-4.672h.822l-2.379 5.641h-.792l-2.37-5.641zm-24.259-.112v.73a2.29 2.29 0 0 0-.532.048 1.285 1.285 0 0 0-.52.233 1.123 1.123 0 0 0-.444.671 3.842 3.842 0 0 0-.103.91v3.161h-.765v-3.64a2.75 2.75 0 0 1 .047-.412l.03-.132c.015-.062.031-.118.049-.167.027-.096.057-.183.092-.258.214-.413.506-.715.88-.909.38-.191.8-.27 1.266-.235zm71.032.009c.366.007.726.086 1.073.233.345.147.643.376.888.685.22.269.36.556.423.861.062.306.093.639.093.997v2.968h-.761v-2.976a4.23 4.23 0 0 0-.057-.703 1.553 1.553 0 0 0-.272-.641 1.515 1.515 0 0 0-.619-.516 2.066 2.066 0 0 0-.788-.176 2.116 2.116 0 0 0-.784.186c-.24.112-.442.28-.608.506-.145.2-.234.415-.273.641a4.417 4.417 0 0 0-.057.703v2.976h-.76V39.82c0-.358.033-.69.092-.997.063-.305.204-.592.42-.86a2.33 2.33 0 0 1 .898-.693c.35-.15.711-.226 1.092-.226zm-88.74.103l1.769 4.723 1.307-4.031h.629l1.297 4.031 1.802-4.723h.805l-2.144 5.641h-.873l-1.205-3.742-1.185 3.742h-.876l-2.131-5.641zm54.855-1.979v7.62h-.762v-7.62zm-59.26 0v.69h-.145c-.39 0-.695.096-.915.289-.218.193-.328.488-.328.888v.112h.882v.692h-.882v4.95h-.764v-4.95h-.873v-.692h.873a2.191 2.191 0 0 1 .12-.845c.093-.248.227-.455.401-.624.176-.169.389-.295.646-.382.252-.086.53-.128.84-.128zm2.099 0v1.98h1.304v.69H15.97v4.95h-.76v-4.95h-1.175v-.69h1.174v-1.98zm96.228 0v1.98h1.305v.69h-1.305v4.95h-.761v-4.95h-1.173v-.69h1.173v-1.98zm-17.811 1.834c.193.008.378.04.551.094a2.8 2.8 0 0 1 .49.2c.151.08.289.17.407.27a1.803 1.803 0 0 1 .544.696c.053.13.09.266.111.407.021.141.032.287.036.438l.004.352V42.8h-.762v-3.146c0-.207-.01-.427-.035-.66a1.322 1.322 0 0 0-.22-.62c-.16-.22-.35-.375-.575-.468a1.863 1.863 0 0 0-.726-.14c-.24 0-.472.057-.698.17-.228.114-.411.27-.545.47-.125.178-.195.38-.214.603a8.959 8.959 0 0 0-.025.645v3.146h-.761v-3.146c0-.207-.007-.421-.026-.645a1.22 1.22 0 0 0-.211-.603 1.442 1.442 0 0 0-.546-.47 1.558 1.558 0 0 0-.7-.17 1.87 1.87 0 0 0-.727.14 1.307 1.307 0 0 0-.792 1.088 6.553 6.553 0 0 0-.037.66v3.146h-.76V39.58c0-.124 0-.245.002-.36l.003-.115c.002-.151.013-.297.033-.438a1.675 1.675 0 0 1 .351-.8c.083-.103.184-.205.305-.303.122-.1.254-.19.408-.27.149-.078.312-.146.487-.2.175-.055.362-.086.553-.094.327-.012.665.047 1.009.176.343.13.645.368.905.712l.02.022a.61.61 0 0 1 .043.055l.035.053c.01.016.02.03.027.044l.082-.119.041-.055c.26-.344.56-.581.906-.712.342-.13.678-.188 1.007-.176zm-42.385-1.845v4.888c0 .42-.076.804-.228 1.155-.148.35-.356.652-.626.903a2.859 2.859 0 0 1-.94.587 3.13 3.13 0 0 1-1.168.214c-.404 0-.811-.079-1.213-.233-.406-.156-.765-.425-1.083-.81a4.226 4.226 0 0 1-.46-.82 2.707 2.707 0 0 1-.218-1.11c0-.418.082-.809.247-1.17A2.976 2.976 0 0 1 49.11 37c.454.016.848.1 1.183.255.335.154.594.322.774.5l.05.057c.018.02.037.042.056.066l.056.074.012.02v-2.816zM29.36 37.013c.419 0 .807.07 1.169.211.36.14.674.336.94.587.267.25.477.551.627.9.152.35.226.736.226 1.154v2.914h-.758v-.844a.147.147 0 0 1-.013.018l-.057.069a1.696 1.696 0 0 1-.106.12c-.185.185-.443.354-.777.508-.333.154-.725.239-1.18.253a2.844 2.844 0 0 1-1.165-.2 3.069 3.069 0 0 1-.969-.619 3.068 3.068 0 0 1-.662-.937 2.8 2.8 0 0 1-.248-1.168c0-.413.072-.782.216-1.108.144-.326.3-.6.463-.819.318-.384.679-.653 1.08-.807.407-.154.81-.232 1.214-.232zm26.657.01c.447 0 .864.094 1.253.284.388.188.727.457 1.015.807a2.87 2.87 0 0 1 .513 1c.048.17.085.35.105.535.02.186.033.382.042.586h-5.102c.007.268.075.521.202.758s.288.442.485.618c.197.174.417.313.667.417.254.102.507.155.768.155.206 0 .414-.028.62-.084.206-.056.4-.134.575-.243.179-.104.34-.234.484-.39.147-.154.26-.327.344-.519h.792a2.82 2.82 0 0 1-.423.782c-.185.24-.402.448-.647.622-.24.175-.508.314-.796.413a2.67 2.67 0 0 1-.877.15 2.945 2.945 0 0 1-2.095-.856 2.991 2.991 0 0 1-.627-.937 2.844 2.844 0 0 1-.234-1.153 2.932 2.932 0 0 1 .85-2.086c.265-.264.575-.473.934-.628.356-.154.74-.231 1.152-.231zm12.38 0c.447 0 .862.094 1.251.284a2.978 2.978 0 0 1 1.332 1.301c.083.166.147.333.195.506.047.17.082.35.103.535.021.186.034.382.042.586h-5.093c.007.268.073.521.2.758s.29.442.483.618c.196.174.42.313.67.417.25.102.504.155.765.155.207 0 .413-.028.618-.084a2.229 2.229 0 0 0 1.06-.632c.142-.155.256-.328.34-.52h.791a2.713 2.713 0 0 1-.42.782c-.185.24-.402.448-.646.622a3.034 3.034 0 0 1-.796.413c-.288.1-.58.15-.874.15-.413 0-.796-.077-1.158-.228-.36-.15-.67-.36-.936-.628a3.02 3.02 0 0 1-.627-.937 2.873 2.873 0 0 1-.233-1.153 2.93 2.93 0 0 1 .851-2.085c.264-.265.574-.474.932-.629a2.846 2.846 0 0 1 1.15-.231zm-28.966 0a2.8 2.8 0 0 1 1.248.284c.388.188.727.457 1.017.807a2.788 2.788 0 0 1 .514 1c.048.17.079.35.1.535.02.186.036.382.04.586h-5.09c.006.268.074.521.2.758.13.237.288.442.483.618.195.174.42.313.67.417.25.102.508.155.767.155.206 0 .41-.028.617-.084a2.229 2.229 0 0 0 1.06-.632c.145-.155.256-.328.34-.52h.79a2.638 2.638 0 0 1-.421.782 3.054 3.054 0 0 1-1.441 1.035c-.288.1-.578.15-.873.15-.412 0-.797-.077-1.157-.228a2.765 2.765 0 0 1-.934-.628 3.005 3.005 0 0 1-.63-.937 2.88 2.88 0 0 1-.23-1.153c0-.411.075-.797.225-1.153.15-.358.358-.668.624-.933a2.94 2.94 0 0 1 .929-.628 2.868 2.868 0 0 1 1.152-.231zm37.73 0c.39 0 .762.077 1.116.231a3.06 3.06 0 0 1 1.569 1.56c.158.351.235.721.235 1.111 0 .406-.075.79-.224 1.15-.152.36-.36.677-.624.947a2.954 2.954 0 0 1-.932.648 2.872 2.872 0 0 1-2.272.015 2.964 2.964 0 0 1-.94-.623 2.824 2.824 0 0 1-.881-2.064c0-.41.08-.798.232-1.157.155-.361.365-.675.627-.943.264-.267.578-.48.938-.64.36-.156.745-.235 1.156-.235zm-69.828 0c.392 0 .762.077 1.117.231.355.155.666.366.93.634.269.266.484.576.642.927.158.35.235.72.235 1.11a2.99 2.99 0 0 1-.847 2.097 3.02 3.02 0 0 1-.934.648c-.36.162-.738.244-1.143.244-.399 0-.776-.077-1.132-.228a2.94 2.94 0 0 1-.943-.624 2.91 2.91 0 0 1-.645-.925 2.763 2.763 0 0 1-.24-1.14 2.974 2.974 0 0 1 1.8-2.738 2.876 2.876 0 0 1 1.16-.236zm-5.363 0c.21 0 .412.04.602.123a1.547 1.547 0 0 1 .826.814c.084.185.124.38.124.587h-.761c0-.247-.083-.441-.252-.582a.938.938 0 0 0-.622-.211.753.753 0 0 0-.556.227.751.751 0 0 0-.226.556c0 .157.026.286.083.385.053.1.128.184.221.254.09.067.197.124.318.168.12.045.243.09.366.129.21.07.412.145.601.227.19.082.354.188.5.314.143.126.258.28.345.458.084.18.128.396.128.649 0 .268-.048.512-.141.732a1.664 1.664 0 0 1-.954.932 2.053 2.053 0 0 1-.726.129c-.242 0-.47-.049-.678-.145a1.757 1.757 0 0 1-.922-.963 1.575 1.575 0 0 1-.108-.685h.764c-.01.145.014.28.064.408.051.127.124.24.216.338a.999.999 0 0 0 .734.315c.276 0 .509-.087.701-.258a.87.87 0 0 0 .287-.68.958.958 0 0 0-.09-.432.944.944 0 0 0-.248-.299 1.52 1.52 0 0 0-.349-.205c-.099-.042-.198-.08-.3-.113l-.104-.032a9.532 9.532 0 0 1-.537-.184 1.352 1.352 0 0 1-.48-.309 1.348 1.348 0 0 1-.34-.49 1.57 1.57 0 0 1 .364-1.716 1.69 1.69 0 0 1 1.15-.442zm98.572 0c.446 0 .862.094 1.25.284a3.03 3.03 0 0 1 1.015.807 2.773 2.773 0 0 1 .514 1c.047.17.082.35.102.535.022.186.033.382.043.586h-5.093c.005.268.073.521.201.758.127.237.288.442.482.618.194.174.418.313.67.417.25.102.504.155.766.155.208 0 .41-.028.615-.084.206-.056.4-.134.578-.243.178-.104.338-.234.485-.39.141-.154.255-.327.336-.519h.794a2.677 2.677 0 0 1-.424.782 3.033 3.033 0 0 1-1.439 1.035c-.29.1-.58.15-.875.15-.411 0-.799-.077-1.158-.228a2.802 2.802 0 0 1-.934-.628 3.03 3.03 0 0 1-.628-.937 2.88 2.88 0 0 1-.231-1.153c0-.411.075-.797.227-1.153.15-.358.356-.668.621-.933.264-.264.574-.473.93-.628.356-.154.74-.231 1.153-.231zm-16.414 0c.402 0 .807.077 1.209.231.407.155.767.426 1.083.808.165.22.317.494.462.82.145.327.217.696.217 1.108 0 .419-.083.809-.248 1.169a2.994 2.994 0 0 1-1.63 1.555 2.848 2.848 0 0 1-1.169.202c-.451-.016-.844-.098-1.176-.253-.332-.155-.593-.324-.778-.51a1.958 1.958 0 0 1-.07-.076l-.037-.043a.45.45 0 0 1-.065-.088v2.813h-.775l.011-4.882c0-.42.075-.804.228-1.154.148-.351.36-.651.627-.902.266-.25.584-.446.94-.587.36-.14.75-.211 1.17-.211z"/></g></g></svg>