<svg xmlns="http://www.w3.org/2000/svg" width="31" height="24" viewBox="0 0 31 24"><g><g><path fill="#c80000" d="M21.269 11.316l.192.027c.658.1 2.908.5 5.353 1.625 4.076 1.873 4.226 4.091 4.18 5.24-.078 2.086-2.248 3.606-4.218 4.32l-.069.024c-1.987.704-5.098 1.169-5.098 1.169 1.514-1.55 2.491-3.709 2.491-6.04 0-2.522-1.115-4.79-2.831-6.365zM13.302 0l5.182 9.625a8.644 8.644 0 0 0-3.052-.552c-4.79 0-8.67 3.854-8.67 8.607 0 2.408.995 4.582 2.598 6.146l-.15-.003a11.68 11.68 0 0 1-1.686-.173l-.122-.023c-1.013-.199-2.945-.76-4.43-1.646C1.43 21.06-.124 19.568.009 17.9l.036-.441c.133-1.463.449-2.802 3.546-7.195 3-4.25 8.24-8.968 9.455-10.04zm2.125 11.362c3.511 0 6.356 2.828 6.356 6.318 0 3.49-2.845 6.32-6.356 6.32-3.513 0-6.36-2.83-6.36-6.32s2.847-6.318 6.36-6.318z"/></g></g></svg>